<svg width="32" height="31" viewBox="0 0 32 31" fill="none" xmlns="http://www.w3.org/2000/svg">
<g clip-path="url(#clip0_38_114)">
<path d="M16.0001 9.21088C15.1475 9.21088 14.3033 9.37355 13.5157 9.68961C12.728 10.0057 12.0124 10.4689 11.4095 11.0529C10.8067 11.6369 10.3285 12.3302 10.0022 13.0933C9.67598 13.8563 9.50806 14.6741 9.50806 15.5C9.50806 16.3259 9.67598 17.1437 10.0022 17.9067C10.3285 18.6698 10.8067 19.3631 11.4095 19.9471C12.0124 20.5311 12.728 20.9943 13.5157 21.3104C14.3033 21.6265 15.1475 21.7891 16.0001 21.7891C17.7218 21.7891 19.3731 21.1265 20.5906 19.9471C21.8081 18.7676 22.4921 17.168 22.4921 15.5C22.4921 13.832 21.8081 12.2324 20.5906 11.0529C19.3731 9.87348 17.7218 9.21088 16.0001 9.21088ZM11.5081 15.5C11.5081 14.3459 11.9813 13.239 12.8237 12.4229C13.6661 11.6068 14.8087 11.1484 16.0001 11.1484C17.1914 11.1484 18.334 11.6068 19.1764 12.4229C20.0188 13.239 20.4921 14.3459 20.4921 15.5C20.4921 16.6541 20.0188 17.761 19.1764 18.5771C18.334 19.3932 17.1914 19.8516 16.0001 19.8516C14.8087 19.8516 13.6661 19.3932 12.8237 18.5771C11.9813 17.761 11.5081 16.6541 11.5081 15.5Z" fill="black"/>
<path d="M19.5917 2.60186C18.5377 -0.866268 13.4617 -0.866268 12.4077 2.60186L12.2197 3.21992C12.1461 3.46201 12.0175 3.68508 11.8434 3.87278C11.6692 4.06047 11.4539 4.20803 11.2132 4.30463C10.9725 4.40124 10.7126 4.44445 10.4524 4.43108C10.1923 4.41772 9.93852 4.34814 9.70973 4.22742L9.12573 3.91742C5.84573 2.18917 2.25973 5.66504 4.04573 8.84061L4.36373 9.40636C4.48834 9.62799 4.56018 9.87383 4.57397 10.1259C4.58776 10.3779 4.54316 10.6297 4.44344 10.8629C4.34371 11.096 4.1914 11.3046 3.99765 11.4733C3.8039 11.642 3.57364 11.7666 3.32373 11.8379L2.68573 12.02C-0.894268 13.0411 -0.894268 17.9585 2.68573 18.9795L3.32373 19.1617C3.57364 19.233 3.8039 19.3576 3.99765 19.5263C4.1914 19.695 4.34371 19.9036 4.44344 20.1367C4.54316 20.3699 4.58776 20.6217 4.57397 20.8737C4.56018 21.1258 4.48834 21.3716 4.36373 21.5932L4.04373 22.159C2.25973 25.3365 5.84573 28.8124 9.12573 27.0802L9.70973 26.7722C9.93852 26.6515 10.1923 26.5819 10.4524 26.5685C10.7126 26.5551 10.9725 26.5983 11.2132 26.695C11.4539 26.7916 11.6692 26.9391 11.8434 27.1268C12.0175 27.3145 12.1461 27.5376 12.2197 27.7797L12.4077 28.3977C13.4617 31.8659 18.5377 31.8659 19.5917 28.3977L19.7797 27.7797C19.8533 27.5376 19.9819 27.3145 20.1561 27.1268C20.3303 26.9391 20.5456 26.7916 20.7862 26.695C21.0269 26.5983 21.2869 26.5551 21.547 26.5685C21.8072 26.5819 22.0609 26.6515 22.2897 26.7722L22.8737 27.0822C26.1537 28.8124 29.7417 25.3345 27.9537 22.159L27.6357 21.5932C27.5111 21.3716 27.4393 21.1258 27.4255 20.8737C27.4117 20.6217 27.4563 20.3699 27.556 20.1367C27.6558 19.9036 27.8081 19.695 28.0018 19.5263C28.1956 19.3576 28.4258 19.233 28.6757 19.1617L29.3137 18.9795C32.8937 17.9585 32.8937 13.0411 29.3137 12.02L28.6757 11.8379C28.4258 11.7666 28.1956 11.642 28.0018 11.4733C27.8081 11.3046 27.6558 11.096 27.556 10.8629C27.4563 10.6297 27.4117 10.3779 27.4255 10.1259C27.4393 9.87383 27.5111 9.62799 27.6357 9.40636L27.9557 8.84061C29.7417 5.66311 26.1517 2.18917 22.8737 3.91936L22.2897 4.22742C22.0609 4.34814 21.8072 4.41772 21.547 4.43108C21.2869 4.44445 21.0269 4.40124 20.7862 4.30463C20.5456 4.20803 20.3303 4.06047 20.1561 3.87278C19.9819 3.68508 19.8533 3.46201 19.7797 3.21992L19.5917 2.60186ZM14.3257 3.15017C14.8177 1.53236 17.1817 1.53236 17.6737 3.15017L17.8617 3.76823C18.0198 4.28765 18.2958 4.76621 18.6696 5.16885C19.0434 5.57148 19.5054 5.88798 20.0219 6.09513C20.5383 6.30228 21.0961 6.39484 21.6543 6.36601C22.2125 6.33719 22.7569 6.18771 23.2477 5.92854L23.8297 5.61854C25.3577 4.81448 27.0297 6.43229 26.1977 7.91448L25.8797 8.48023C25.6126 8.95575 25.4587 9.48313 25.4293 10.0238C25.3998 10.5644 25.4956 11.1045 25.7096 11.6046C25.9236 12.1047 26.2504 12.5521 26.6661 12.914C27.0817 13.2758 27.5757 13.543 28.1117 13.696L28.7477 13.8781C30.4177 14.3547 30.4177 16.6449 28.7477 17.1215L28.1097 17.3036C27.5736 17.4567 27.0796 17.7241 26.6639 18.0862C26.2483 18.4483 25.9216 18.8959 25.7078 19.3963C25.4939 19.8966 25.3984 20.4369 25.4282 20.9777C25.4579 21.5184 25.6122 22.0458 25.8797 22.5213L26.1997 23.0851C27.0297 24.5654 25.3597 26.1851 23.8297 25.3791L23.2477 25.071C22.7568 24.8119 22.2122 24.6625 21.6539 24.6338C21.0956 24.6051 20.5378 24.6978 20.0213 24.9052C19.5048 25.1125 19.0428 25.4292 18.6691 25.8321C18.2954 26.2349 18.0195 26.7137 17.8617 27.2333L17.6737 27.8494C17.1817 29.4672 14.8177 29.4672 14.3257 27.8494L14.1377 27.2314C13.9796 26.7122 13.7036 26.2339 13.33 25.8315C12.9564 25.429 12.4945 25.1127 11.9783 24.9056C11.4621 24.6984 10.9046 24.6058 10.3467 24.6344C9.78872 24.6631 9.24445 24.8122 8.75373 25.071L8.16973 25.381C6.64173 26.1851 4.96973 24.5673 5.80173 23.0851L6.11973 22.5213C6.38764 22.0458 6.54223 21.5181 6.57219 20.9772C6.60214 20.4362 6.50668 19.8956 6.29282 19.395C6.07896 18.8945 5.75212 18.4466 5.33629 18.0844C4.92046 17.7222 4.42618 17.4547 3.88973 17.3017L3.25173 17.1195C1.58173 16.6429 1.58173 14.3528 3.25173 13.8762L3.88973 13.694C4.42534 13.5408 4.91881 13.2735 5.33402 12.9117C5.74922 12.5498 6.07566 12.1026 6.28944 11.6028C6.50322 11.103 6.59893 10.5632 6.56956 10.0229C6.5402 9.48263 6.38651 8.95554 6.11973 8.48023L5.79973 7.91448C4.96973 6.43423 6.63973 4.81448 8.16973 5.62048L8.75373 5.92854C9.24445 6.18735 9.78872 6.33653 10.3467 6.36517C10.9046 6.3938 11.4621 6.30116 11.9783 6.09404C12.4945 5.88691 12.9564 5.57055 13.33 5.16812C13.7036 4.76568 13.9796 4.28738 14.1377 3.76823L14.3257 3.15017Z" fill="black"/>
</g>
<defs>
<clipPath id="clip0_38_114">
<rect width="32" height="31" fill="white"/>
</clipPath>
</defs>
</svg>
