<svg width="100" height="100" viewBox="0 0 100 100" fill="none" xmlns="http://www.w3.org/2000/svg">
<path fill-rule="evenodd" clip-rule="evenodd" d="M30 40C24.4772 40 20 44.4772 20 50V85C20 90.5229 24.4772 95 30 95H71C76.5229 95 81 90.5229 81 85V50C81 44.4772 76.5229 40 71 40H30ZM50.5 84C57 84 62 80 61 73.5C60.4678 70.0407 60 68 50.5 52.5C40.9208 67.3478 40.5473 69.8451 40.065 73.0698C40.0438 73.2114 40.0224 73.3544 40 73.5C39 80 44 84 50.5 84Z" fill="#f0f8ff"/>
<path fill-rule="evenodd" clip-rule="evenodd" d="M16.5423 36.3694C15.786 35.5643 15.8256 34.2986 16.6307 33.5423L49.6307 2.54231C50.4357 1.78604 51.7014 1.82559 52.4577 2.63066C53.214 3.43572 53.1744 4.70143 52.3694 5.4577L19.3694 36.4577C18.5643 37.214 17.2986 37.1744 16.5423 36.3694Z" fill="#f0f8ff"/>
<path fill-rule="evenodd" clip-rule="evenodd" d="M85.4577 36.3694C84.7014 37.1744 83.4357 37.214 82.6307 36.4577L49.6307 5.4577C48.8256 4.70143 48.786 3.43572 49.5423 2.63065C50.2986 1.82559 51.5643 1.78604 52.3694 2.54231L85.3694 33.5423C86.1744 34.2986 86.214 35.5643 85.4577 36.3694Z" fill="#f0f8ff"/>
<path fill-rule="evenodd" clip-rule="evenodd" d="M16 35C16 33.8954 16.8954 33 18 33H84C85.1046 33 86 33.8954 86 35C86 36.1046 85.1046 37 84 37H18C16.8954 37 16 36.1046 16 35Z" fill="#f0f8ff"/>
<path fill-rule="evenodd" clip-rule="evenodd" d="M67 21C65.8954 21 65 20.1046 65 19V11C65 9.89544 65.8954 9.00001 67 9.00001C68.1046 9.00001 69 9.89544 69 11V19C69 20.1046 68.1046 21 67 21Z" fill="#f0f8ff"/>
<path fill-rule="evenodd" clip-rule="evenodd" d="M75 28C73.8954 28 73 27.1046 73 26V11C73 9.89544 73.8954 9.00001 75 9.00001C76.1046 9.00001 77 9.89544 77 11V26C77 27.1046 76.1046 28 75 28Z" fill="#f0f8ff"/>
<path fill-rule="evenodd" clip-rule="evenodd" d="M69.5085 9.86652C69.216 10.0986 69.0017 10.4303 69 11.0062C68.9965 12.1108 68.0983 13.0034 66.9938 13C65.8892 12.9966 64.9966 12.0984 65 10.9938C65.0056 9.16814 65.8034 7.69997 67.0226 6.73277C68.1908 5.80608 69.6574 5.40054 71.0317 5.40139C72.4052 5.40224 73.8718 5.80937 75.0337 6.74411C76.2492 7.72193 77.0251 9.20169 76.9998 11.0277C76.9845 12.1322 76.0768 13.0151 74.9723 12.9998C73.8678 12.9845 72.9849 12.0768 73.0002 10.9723C73.0081 10.4017 72.8025 10.0828 72.5265 9.86077C72.1969 9.59566 71.6622 9.40178 71.0292 9.40139C70.3971 9.401 69.8521 9.59398 69.5085 9.86652Z" fill="#f0f8ff"/>
</svg>
